<?xml version="1.0" encoding="UTF-8" standalone="no"?><svg id="Layer_1" data-name="Layer 1" xmlns="http://www.w3.org/2000/svg" width="200mm" height="52mm" viewBox="0 0 283.46 73.7"><defs><style>.cls-1{fill:#fff;}.cls-2{fill:#231f20;}.cls-3{fill:#cf202e;}</style></defs><title>Edwards Logo</title><rect class="cls-1" width="283.46" height="73.7"/><polygon class="cls-2" points="32.84 37.9 34.73 28.81 59.24 23.52 32.84 37.9"/><path class="cls-3" d="M96.56,32.61c-2.21-1.85-5.33-2.84-11-2.84H73L68.08,53.47H82.35c5.51,0,9.6-1.35,12.38-3.52a12.65,12.65,0,0,0,4.8-10.16,8.87,8.87,0,0,0-3-7.17M89.44,46.54a11.62,11.62,0,0,1-7.05,2h-6.7l2.85-13.76h7.38c2.44,0,4.11.42,5.18,1.44a5.51,5.51,0,0,1,1.46,4.09,7.69,7.69,0,0,1-3.12,6.26M46.71,34.74L45.83,39H65c-0.51,3.51-1.08,5-4.73,5H44.81l-1,4.57H65.17l-1,5H42.89c-4.29,0-5.61-1.83-5.61-4.19a9.34,9.34,0,0,1,.21-1.74L39.7,36.82l12.93-7H69l-1,5H46.71Zm98.83-5-18.21,23.7h-4.05a2.87,2.87,0,0,1-3.15-3.09c0-.66.07-2.09,0.18-3.6l0.79-10.45-11,17.14H106c-2.32,0-3.49-1-3.53-3.24,0-.69,0-1.59.06-2.22l0.55-18.24h6.51l-1,16,8.84-13.89c1.17-1.74,2.51-2.06,4.52-2.06h5.65l-1.15,15.95L138.4,29.78h7.14Zm9.9-.21a5,5,0,0,0-4.61,2.15L133.77,53.47h7.07l3.33-4.39h14.21l1.49,4.39h6.85l-7.41-21.61c-0.72-1.79-1.61-2.3-3.87-2.3M148,44.21l6.07-7.86,2.67,7.86H148ZM229,32.61c-2.21-1.85-5.33-2.84-11-2.84H205.38l-4.91,23.69h14.26c5.52,0,9.61-1.35,12.38-3.52a12.65,12.65,0,0,0,4.79-10.16,8.88,8.88,0,0,0-3-7.17m-7.12,13.93a11.64,11.64,0,0,1-7.05,2h-6.7l2.85-13.76h7.39c2.44,0,4.11.42,5.18,1.44A5.51,5.51,0,0,1,225,40.28a7.68,7.68,0,0,1-3.12,6.26M196.53,31.38c-1.81-1.13-4.19-1.6-7.76-1.6H173.94L169,53.47h6.57L176.94,47h8.42l4.07,6.45h7.19l-4.46-7c5.11-1.43,7.37-4.34,7.37-9.3a6.4,6.4,0,0,0-3-5.83m-4.78,9.51c-0.92.73-2,1.17-4.33,1.17H178l1.51-7.31,9.23,0a5.2,5.2,0,0,1,3.37.77,2.83,2.83,0,0,1,1,2.38,3.68,3.68,0,0,1-1.35,3m60.75-1.75c5.71,0.66,8.78,2.28,8.78,6.27,0,4.58-4.22,8.47-14.41,8.47a29.71,29.71,0,0,1-14.62-3.52l3.12-4.63a25.16,25.16,0,0,0,12,3.2c5.34,0,6.89-1.21,6.89-2.5a1.31,1.31,0,0,0-.79-1.27,12.79,12.79,0,0,0-3.56-.71c-1.45-.18-3.67-0.44-5.11-0.65-6.49-.95-8.84-2.74-8.84-6.56,0-4.12,3.68-7.86,13.69-7.86a39.82,39.82,0,0,1,13.45,2.44l-3.3,4.69a31,31,0,0,0-11.09-2.18c-4.21,0-5.72.86-5.72,2a1.63,1.63,0,0,0,1.15,1.46,15,15,0,0,0,3.8.76l4.6,0.55M24.16,53.88a1.66,1.66,0,0,1-1.53-1A29.37,29.37,0,0,1,71.6,22a1.65,1.65,0,1,1-2.46,2.21A26.07,26.07,0,0,0,23.69,41.62a25.85,25.85,0,0,0,2,10,1.66,1.66,0,0,1-.89,2.16A1.7,1.7,0,0,1,24.16,53.88Z" transform="translate(0 0)"/></svg>